# Blender v2.79 (sub 0) OBJ File: ''
# www.blender.org
mtllib 3d_Sac02.mtl
o Sphere_Sphere.002
v 0.000000 0.572272 -0.500000
v 0.000000 -0.330402 -0.866025
v -0.000000 0.660803 -0.000000
v 0.353553 0.572272 -0.353553
v 0.612372 0.330402 -0.612373
v 0.707107 -0.000000 -0.707107
v 0.612372 -0.330402 -0.612372
v 0.353553 -0.572272 -0.353553
v 0.500000 0.572272 -0.000000
v 0.866025 0.330402 -0.000000
v 1.000000 -0.000000 -0.000000
v 0.866025 -0.330402 -0.000000
v 0.500000 -0.572272 -0.000000
v 0.353553 0.572272 0.353553
v 0.612372 0.330402 0.612372
v 0.707107 -0.000000 0.707106
v 0.612372 -0.330402 0.612372
v 0.353553 -0.572272 0.353553
v 0.000000 -0.660803 -0.000000
v -0.000000 0.572272 0.500000
v 0.000000 0.330402 0.866025
v 0.000000 -0.000000 1.000000
v 0.000000 -0.330402 0.866025
v -0.000000 -0.572272 0.500000
v -0.353553 0.572272 0.353553
v -0.612372 0.330402 0.612372
v -0.707107 -0.000000 0.707106
v -0.612372 -0.330402 0.612372
v -0.353553 -0.572272 0.353553
v -0.500000 0.572272 -0.000000
v -0.866025 0.330402 -0.000000
v -1.000000 -0.000000 -0.000000
v -0.866025 -0.330402 -0.000000
v -0.500000 -0.572272 -0.000000
v -0.353553 0.572272 -0.353553
v -0.612372 0.330402 -0.612372
v -0.707107 -0.000000 -0.707107
v -0.612372 -0.330402 -0.612372
v -0.353553 -0.572272 -0.353553
v -0.000000 0.330402 -0.866025
v 0.000000 -0.000000 -1.000000
v -0.000000 -0.572272 -0.500000
v 0.198607 -0.330402 -0.783760
v 0.114666 0.572272 -0.452504
v 0.114666 -0.572272 -0.452504
v 0.229332 -0.000000 -0.905007
v 0.198607 0.330402 -0.783760
v 0.116313 0.279367 -1.002898
v 0.116313 0.150804 -1.055029
v 0.193594 0.279367 -0.970888
v 0.205549 0.150804 -1.018067
v 0.095000 0.385391 -1.062198
v 0.095000 0.101514 -1.177307
v 0.265640 0.385391 -0.991516
v 0.292039 0.101514 -1.095691
vn 0.0720 -0.9821 -0.1739
vn 0.3584 -0.3508 -0.8652
vn 0.2226 0.8134 -0.5375
vn 0.2226 -0.8134 -0.5375
vn 0.3584 0.3508 -0.8652
vn 0.0720 0.9821 -0.1739
vn 0.5375 0.8134 -0.2226
vn 0.5375 -0.8134 -0.2226
vn 0.8652 0.3508 -0.3584
vn 0.1739 0.9821 -0.0720
vn 0.1739 -0.9821 -0.0720
vn 0.8652 -0.3508 -0.3584
vn 0.5375 -0.8134 0.2226
vn 0.8652 0.3508 0.3584
vn 0.1739 0.9821 0.0720
vn 0.1739 -0.9821 0.0720
vn 0.8652 -0.3508 0.3584
vn 0.5375 0.8134 0.2226
vn 0.2226 -0.8134 0.5375
vn 0.3584 0.3508 0.8652
vn 0.0720 0.9821 0.1739
vn 0.0720 -0.9821 0.1739
vn 0.3584 -0.3508 0.8652
vn 0.2226 0.8134 0.5375
vn -0.2226 -0.8134 0.5375
vn -0.3584 0.3508 0.8652
vn -0.0720 0.9821 0.1739
vn -0.0720 -0.9821 0.1739
vn -0.3584 -0.3508 0.8652
vn -0.2226 0.8134 0.5375
vn -0.5375 -0.8134 0.2226
vn -0.8652 0.3508 0.3584
vn -0.1739 0.9821 0.0720
vn -0.1739 -0.9821 0.0720
vn -0.8652 -0.3508 0.3584
vn -0.5375 0.8134 0.2226
vn -0.8652 0.3508 -0.3584
vn -0.1739 0.9821 -0.0720
vn -0.1739 -0.9821 -0.0720
vn -0.8652 -0.3508 -0.3584
vn -0.5375 0.8134 -0.2226
vn -0.5375 -0.8134 -0.2226
vn -0.0720 0.9821 -0.1739
vn -0.0720 -0.9821 -0.1739
vn -0.3584 -0.3508 -0.8652
vn -0.2226 0.8134 -0.5375
vn -0.2226 -0.8134 -0.5375
vn -0.3584 0.3508 -0.8652
vn -0.6793 0.2758 -0.6801
vn 0.5714 -0.2354 0.7862
vn 0.9919 0.1133 -0.0575
vn 0.3235 -0.5344 -0.7809
vn 0.1095 0.9582 -0.2643
vn -0.3503 0.4026 0.8457
vn -0.1629 -0.9049 0.3932
vn -0.9756 -0.0824 0.2033
usemtl None
s off
f 19//1 42//1 45//1 8//1
f 43//2 46//2 6//2 7//2
f 47//3 44//3 4//3 5//3
f 45//4 43//4 7//4 8//4
f 46//5 47//5 5//5 6//5
f 1//6 3//6 4//6 44//6
f 5//7 4//7 9//7 10//7
f 8//8 7//8 12//8 13//8
f 6//9 5//9 10//9 11//9
f 4//10 3//10 9//10
f 19//11 8//11 13//11
f 7//12 6//12 11//12 12//12
f 13//13 12//13 17//13 18//13
f 11//14 10//14 15//14 16//14
f 9//15 3//15 14//15
f 19//16 13//16 18//16
f 12//17 11//17 16//17 17//17
f 10//18 9//18 14//18 15//18
f 18//19 17//19 23//19 24//19
f 16//20 15//20 21//20 22//20
f 14//21 3//21 20//21
f 19//22 18//22 24//22
f 17//23 16//23 22//23 23//23
f 15//24 14//24 20//24 21//24
f 24//25 23//25 28//25 29//25
f 22//26 21//26 26//26 27//26
f 20//27 3//27 25//27
f 19//28 24//28 29//28
f 23//29 22//29 27//29 28//29
f 21//30 20//30 25//30 26//30
f 29//31 28//31 33//31 34//31
f 27//32 26//32 31//32 32//32
f 25//33 3//33 30//33
f 19//34 29//34 34//34
f 28//35 27//35 32//35 33//35
f 26//36 25//36 30//36 31//36
f 32//37 31//37 36//37 37//37
f 30//38 3//38 35//38
f 19//39 34//39 39//39
f 33//40 32//40 37//40 38//40
f 31//41 30//41 35//41 36//41
f 34//42 33//42 38//42 39//42
f 35//43 3//43 1//43
f 19//44 39//44 42//44
f 38//45 37//45 41//45 2//45
f 36//46 35//46 1//46 40//46
f 39//47 38//47 2//47 42//47
f 37//48 36//48 40//48 41//48
f 41//49 40//49 48//49 49//49
f 42//4 2//4 43//4 45//4
f 40//3 1//3 44//3 47//3
f 2//2 41//2 46//2 43//2
f 50//50 51//50 55//50 54//50
f 47//51 46//51 51//51 50//51
f 46//52 41//52 49//52 51//52
f 40//53 47//53 50//53 48//53
f 53//5 52//5 54//5 55//5
f 48//54 50//54 54//54 52//54
f 51//55 49//55 53//55 55//55
f 49//56 48//56 52//56 53//56
