# Blender v2.79 (sub 0) OBJ File: ''
# www.blender.org
mtllib 3d_VaseBrise02.mtl
o Cylinder_Cylinder.002
v -0.000000 -1.000000 -0.142459
v 0.100733 -1.000000 -0.100733
v 0.142459 -1.000000 0.000000
v 0.100733 -1.000000 0.100733
v -0.000000 -1.000000 0.142459
v -0.100734 -1.000000 0.100733
v -0.142459 -1.000000 -0.000000
v -0.100734 -1.000000 -0.100733
v -0.000000 -0.893351 -0.319947
v -0.000000 -0.668376 -0.497436
v -0.000000 -0.325076 -0.674924
v -0.000000 -0.092985 -0.716742
v 0.570459 0.136550 -0.570459
v 0.477244 -0.325076 -0.477244
v 0.351740 -0.668376 -0.351740
v 0.226237 -0.893351 -0.226237
v 0.701667 -0.127167 0.000000
v 0.674924 -0.325076 0.000000
v 0.497436 -0.668376 0.000000
v 0.319947 -0.893351 0.000000
v 0.570459 0.136550 0.570459
v 0.477244 -0.325076 0.477244
v 0.351740 -0.668376 0.351740
v 0.226237 -0.893351 0.226237
v -0.000000 -0.099941 0.744508
v -0.000000 -0.325076 0.674924
v -0.000000 -0.668376 0.497436
v -0.000000 -0.893351 0.319947
v -0.570459 0.136550 0.570459
v -0.477244 -0.325076 0.477243
v -0.351740 -0.668376 0.351740
v -0.226237 -0.893351 0.226237
v -0.707404 -0.127167 -0.000000
v -0.674924 -0.325076 -0.000000
v -0.497436 -0.668376 -0.000000
v -0.319947 -0.893351 -0.000000
v -0.570459 0.136550 -0.570459
v -0.477244 -0.325076 -0.477244
v -0.351740 -0.668376 -0.351740
v -0.226237 -0.893351 -0.226237
v -0.000000 0.034344 -0.583426
v 0.476190 0.254500 -0.476190
v 0.506193 0.606071 0.000000
v 0.561618 0.365236 0.282748
v -0.000000 0.142089 0.562508
v -0.596538 0.365236 0.282748
v -0.602299 0.606071 -0.000000
v -0.476190 0.254500 -0.476190
v -0.000000 0.166247 -0.476190
v -0.048053 0.214416 0.000000
v -0.000000 0.132430 0.282748
vn 0.0000 -1.0000 0.0000
vn -0.2086 -0.8383 -0.5037
vn -0.3093 -0.5890 -0.7466
vn -0.3453 -0.4310 -0.8337
vn -0.3479 -0.2240 -0.9104
vn -0.5037 -0.8383 -0.2086
vn -0.7466 -0.5890 -0.3093
vn -0.8337 -0.4310 -0.3453
vn -0.9110 -0.2227 -0.3470
vn -0.5037 -0.8383 0.2086
vn -0.7466 -0.5890 0.3093
vn -0.8337 -0.4310 0.3453
vn -0.9110 -0.2227 0.3470
vn -0.2086 -0.8383 0.5037
vn -0.3093 -0.5890 0.7466
vn -0.3453 -0.4310 0.8337
vn -0.3747 -0.2617 0.8895
vn 0.2086 -0.8383 0.5037
vn 0.3093 -0.5890 0.7466
vn 0.3453 -0.4310 0.8337
vn 0.3747 -0.2617 0.8895
vn 0.5037 -0.8383 0.2086
vn 0.7466 -0.5890 0.3093
vn 0.8337 -0.4310 0.3453
vn 0.9151 -0.2147 0.3413
vn 0.5037 -0.8383 -0.2086
vn 0.7466 -0.5890 -0.3093
vn 0.8337 -0.4310 -0.3453
vn 0.9151 -0.2147 -0.3413
vn 0.2086 -0.8383 -0.5037
vn 0.3093 -0.5890 -0.7466
vn 0.3453 -0.4310 -0.8337
vn 0.3479 -0.2240 -0.9104
vn -0.1005 0.6557 -0.7483
vn 0.9268 0.3344 -0.1708
vn 0.9708 0.2014 0.1302
vn -0.0030 0.7063 0.7079
vn 0.0030 0.7064 0.7078
vn 0.9658 0.2575 0.0300
vn -0.9346 0.2472 -0.2556
vn 0.1005 0.6557 -0.7483
vn 0.3634 0.9311 -0.0321
vn 0.4339 0.7996 0.4152
vn 0.4040 0.8675 -0.2902
vn -0.1161 0.6266 -0.7707
vn -0.9802 0.1405 0.1396
vn -0.9766 0.1161 0.1808
vn -0.3935 0.8450 -0.3621
vn -0.4211 0.7524 0.5066
vn -0.3827 0.9233 -0.0319
vn 0.1161 0.6266 -0.7707
usemtl None
s off
f 1//1 2//1 3//1 4//1 5//1 6//1 7//1 8//1
f 8//2 40//2 9//2 1//2
f 40//3 39//3 10//3 9//3
f 39//4 38//4 11//4 10//4
f 38//5 37//5 12//5 11//5
f 7//6 36//6 40//6 8//6
f 36//7 35//7 39//7 40//7
f 35//8 34//8 38//8 39//8
f 34//9 33//9 37//9 38//9
f 6//10 32//10 36//10 7//10
f 32//11 31//11 35//11 36//11
f 31//12 30//12 34//12 35//12
f 30//13 29//13 33//13 34//13
f 5//14 28//14 32//14 6//14
f 28//15 27//15 31//15 32//15
f 27//16 26//16 30//16 31//16
f 26//17 25//17 29//17 30//17
f 4//18 24//18 28//18 5//18
f 24//19 23//19 27//19 28//19
f 23//20 22//20 26//20 27//20
f 22//21 21//21 25//21 26//21
f 3//22 20//22 24//22 4//22
f 20//23 19//23 23//23 24//23
f 19//24 18//24 22//24 23//24
f 18//25 17//25 21//25 22//25
f 2//26 16//26 20//26 3//26
f 16//27 15//27 19//27 20//27
f 15//28 14//28 18//28 19//28
f 14//29 13//29 17//29 18//29
f 1//30 9//30 16//30 2//30
f 9//31 10//31 15//31 16//31
f 10//32 11//32 14//32 15//32
f 11//33 12//33 13//33 14//33
f 12//34 41//34 42//34 13//34
f 13//35 42//35 43//35 17//35
f 44//36 21//36 17//36
f 21//37 44//37 45//37 25//37
f 25//38 45//38 46//38 29//38
f 17//39 43//39 44//39
f 33//40 47//40 48//40 37//40
f 37//41 48//41 41//41 12//41
f 46//42 45//42 51//42
f 50//43 47//43 46//43 51//43
f 49//44 48//44 47//44 50//44
f 42//45 41//45 49//45
f 47//46 33//46 46//46
f 46//47 33//47 29//47
f 42//48 49//48 50//48 43//48
f 43//49 50//49 51//49 44//49
f 45//50 44//50 51//50
f 48//51 49//51 41//51
