# Blender v2.79 (sub 0) OBJ File: ''
# www.blender.org
mtllib 3d_VaseBrise01.mtl
o Cylinder_Cylinder.002
v -0.000000 -1.000000 -0.142459
v 0.100733 -1.000000 -0.100733
v 0.142459 -1.000000 0.000000
v 0.100733 -1.000000 0.100733
v -0.000000 -1.000000 0.142459
v -0.100734 -1.000000 0.100733
v -0.142459 -1.000000 -0.000000
v -0.100734 -1.000000 -0.100733
v -0.000000 -0.893351 -0.319947
v -0.000000 -0.668376 -0.497436
v -0.000000 -0.325076 -0.674924
v -0.000000 0.136551 -0.806751
v 0.570459 0.136550 -0.570459
v 0.477244 -0.325076 -0.477244
v 0.351740 -0.668376 -0.351740
v 0.226237 -0.893351 -0.226237
v 0.806751 -0.127167 0.000000
v 0.674924 -0.325076 0.000000
v 0.497436 -0.668376 0.000000
v 0.319947 -0.893351 0.000000
v 0.570459 0.136550 0.570459
v 0.477244 -0.325076 0.477244
v 0.351740 -0.668376 0.351740
v 0.226237 -0.893351 0.226237
v -0.000000 0.136550 0.806751
v -0.000000 -0.325076 0.674924
v -0.000000 -0.668376 0.497436
v -0.000000 -0.893351 0.319947
v -0.570459 0.136550 0.570459
v -0.477244 -0.325076 0.477243
v -0.351740 -0.668376 0.351740
v -0.226237 -0.893351 0.226237
v -0.806751 -0.127167 -0.000000
v -0.674924 -0.325076 -0.000000
v -0.497436 -0.668376 -0.000000
v -0.319947 -0.893351 -0.000000
v -0.570459 0.136550 -0.570459
v -0.477244 -0.325076 -0.477244
v -0.351740 -0.668376 -0.351740
v -0.226237 -0.893351 -0.226237
v -0.000000 0.401609 -0.673435
v 0.476190 0.254500 -0.476190
v 0.673435 0.137891 0.000000
v 0.476190 0.401608 0.476190
v -0.000000 0.591408 0.624751
v -0.476190 0.401608 0.476190
v -0.673435 0.137891 -0.000000
v -0.476190 0.254500 -0.476190
vn 0.0000 -1.0000 0.0000
vn -0.2086 -0.8383 -0.5037
vn -0.3093 -0.5890 -0.7466
vn -0.3453 -0.4310 -0.8337
vn -0.3700 -0.2551 -0.8933
vn -0.5037 -0.8383 -0.2086
vn -0.7466 -0.5890 -0.3093
vn -0.8337 -0.4310 -0.3453
vn -0.8331 -0.3453 -0.4320
vn -0.5037 -0.8383 0.2086
vn -0.7466 -0.5890 0.3093
vn -0.8337 -0.4310 0.3453
vn -0.8331 -0.3453 0.4320
vn -0.2086 -0.8383 0.5037
vn -0.3093 -0.5890 0.7466
vn -0.3453 -0.4310 0.8337
vn -0.3700 -0.2551 0.8933
vn 0.2086 -0.8383 0.5037
vn 0.3093 -0.5890 0.7466
vn 0.3453 -0.4310 0.8337
vn 0.3700 -0.2551 0.8933
vn 0.5037 -0.8383 0.2086
vn 0.7466 -0.5890 0.3093
vn 0.8337 -0.4310 0.3453
vn 0.8331 -0.3453 0.4320
vn 0.5037 -0.8383 -0.2086
vn 0.7466 -0.5890 -0.3093
vn 0.8337 -0.4310 -0.3453
vn 0.8331 -0.3453 -0.4320
vn 0.2086 -0.8383 -0.5037
vn 0.3093 -0.5890 -0.7466
vn 0.3453 -0.4310 -0.8337
vn 0.3700 -0.2551 -0.8933
vn 0.3858 0.5396 -0.7483
vn 0.8329 0.5322 -0.1516
vn 0.8958 0.4135 0.1627
vn 0.3791 0.3744 0.8463
vn -0.3791 0.3744 0.8463
vn -0.8958 0.4135 0.1627
vn -0.8329 0.5322 -0.1516
vn -0.3858 0.5396 -0.7483
vn 0.0000 0.6164 -0.7875
vn 0.0000 0.8748 -0.4845
vn 0.0000 0.9713 0.2379
vn 0.0000 0.8016 0.5979
usemtl None
s off
f 1//1 2//1 3//1 4//1 5//1 6//1 7//1 8//1
f 8//2 40//2 9//2 1//2
f 40//3 39//3 10//3 9//3
f 39//4 38//4 11//4 10//4
f 38//5 37//5 12//5 11//5
f 7//6 36//6 40//6 8//6
f 36//7 35//7 39//7 40//7
f 35//8 34//8 38//8 39//8
f 34//9 33//9 37//9 38//9
f 6//10 32//10 36//10 7//10
f 32//11 31//11 35//11 36//11
f 31//12 30//12 34//12 35//12
f 30//13 29//13 33//13 34//13
f 5//14 28//14 32//14 6//14
f 28//15 27//15 31//15 32//15
f 27//16 26//16 30//16 31//16
f 26//17 25//17 29//17 30//17
f 4//18 24//18 28//18 5//18
f 24//19 23//19 27//19 28//19
f 23//20 22//20 26//20 27//20
f 22//21 21//21 25//21 26//21
f 3//22 20//22 24//22 4//22
f 20//23 19//23 23//23 24//23
f 19//24 18//24 22//24 23//24
f 18//25 17//25 21//25 22//25
f 2//26 16//26 20//26 3//26
f 16//27 15//27 19//27 20//27
f 15//28 14//28 18//28 19//28
f 14//29 13//29 17//29 18//29
f 1//30 9//30 16//30 2//30
f 9//31 10//31 15//31 16//31
f 10//32 11//32 14//32 15//32
f 11//33 12//33 13//33 14//33
f 12//34 41//34 42//34 13//34
f 13//35 42//35 43//35 17//35
f 17//36 43//36 44//36 21//36
f 21//37 44//37 45//37 25//37
f 25//38 45//38 46//38 29//38
f 29//39 46//39 47//39 33//39
f 33//40 47//40 48//40 37//40
f 37//41 48//41 41//41 12//41
f 45//42 44//42 46//42
f 43//43 47//43 46//43 44//43
f 42//44 48//44 47//44 43//44
f 41//45 48//45 42//45
