# Blender v2.79 (sub 0) OBJ File: ''
# www.blender.org
mtllib 3d_Tente01.mtl
o Cube_Cube.003
v -1.000000 -1.000000 1.000000
v 0.000000 1.000000 1.000000
v -1.000000 -1.000000 -1.000000
v 0.000000 1.000000 -1.000000
v 1.000000 -1.000000 1.000000
v 1.000000 -1.000000 -1.000000
v 0.000000 -1.000000 -1.000000
v 0.000000 -1.000000 1.000000
vn -0.8944 0.4472 0.0000
vn 0.0000 0.0000 -1.0000
vn 0.8944 0.4472 0.0000
vn 0.0000 0.0000 1.0000
vn 0.0000 -1.0000 0.0000
usemtl None
s off
f 1//1 2//1 4//1 3//1
f 7//2 4//2 6//2
f 6//3 4//3 2//3 5//3
f 8//4 2//4 1//4
f 7//5 6//5 5//5 8//5
f 3//5 7//5 8//5 1//5
f 5//4 2//4 8//4
f 3//2 4//2 7//2
